<svg xmlns="http://www.w3.org/2000/svg" x="0px" y="0px"
width="50" height="50"
viewBox="0 0 226 226"
style=" fill:#000000;"><g fill="none" fill-rule="nonzero" stroke="none" stroke-width="1" stroke-linecap="butt" stroke-linejoin="miter" stroke-miterlimit="10" stroke-dasharray="" stroke-dashoffset="0" font-family="none" font-weight="none" font-size="none" text-anchor="none" style="mix-blend-mode: normal"><path d="M0,226v-226h226v226z" fill="none"></path><g fill="#e74c3c"><path d="M54.00164,36.16c-0.1924,0.00835 -0.38407,0.029 -0.57383,0.0618l-49.72,9.04883c-1.41369,0.25755 -2.62071,1.17188 -3.25146,2.463c-0.63075,1.29112 -0.61008,2.80522 0.05568,4.07864l54.24,103.96c0.98834,1.8897 3.16291,2.83165 5.21742,2.26l48.8107,-13.56l27.42016,47.61891c1.09982,1.91407 3.42126,2.75382 5.49109,1.98633l76.86649,-28.40891c1.30382,-0.48205 2.31335,-1.53717 2.73739,-2.861c0.42404,-1.32382 0.21542,-2.76913 -0.56567,-3.919l-25.96351,-38.29641l27.92336,-7.75992c1.40913,-0.39022 2.54249,-1.43791 3.04203,-2.8121c0.49954,-1.37418 0.30357,-2.90512 -0.52601,-4.10915l-24.85117,-36.04524c-1.08275,-1.56701 -3.03155,-2.28722 -4.87313,-1.80094l-33.90883,8.92523c-1.41734,0.37266 -2.56607,1.4093 -3.0818,2.78106c-0.51573,1.37177 -0.33445,2.90843 0.48633,4.12253l21.25813,31.3575l-67.11141,18.63617l-54.97274,-95.46734c-0.84799,-1.4737 -2.45118,-2.34693 -4.14922,-2.26zM51.90938,45.68555l52.21836,90.70016l-43.05476,11.96211l-49.70234,-95.28195zM194.71313,77.60805l19.43953,28.21469l-24.72758,6.87711l-19.38656,-28.5943zM185.57602,123.14352l24.43625,36.04523l-67.87946,25.08953l-24.35679,-42.30437z"></path></g></g></svg>